<svg xmlns="http://www.w3.org/2000/svg" width="1120" height="620" viewBox="0 0 1120 620" fill="none" role="img" aria-labelledby="title desc">
  <title id="title">Hang on tight orchestration panel</title>
  <desc id="desc">Running character and message while AI orchestrates the e-learning course.</desc>

  <rect width="1120" height="620" fill="#ECEDEE"/>
  <rect x="64" y="118" width="992" height="382" rx="20" fill="#ECEDEE" stroke="#223B76" stroke-width="10"/>

  <g opacity="0.48" stroke="#95BCD2" stroke-width="5" stroke-linecap="round">
    <line x1="154" y1="216" x2="210" y2="216"/>
    <line x1="126" y1="248" x2="182" y2="248"/>
    <line x1="148" y1="280" x2="204" y2="280"/>
    <line x1="136" y1="312" x2="192" y2="312"/>
    <line x1="162" y1="344" x2="218" y2="344"/>
  </g>

  <ellipse cx="232" cy="424" rx="86" ry="10" fill="#CFD3D9"/>
  <circle cx="250" cy="214" r="18" fill="#E8AE83"/>
  <path d="M236 205C244 198 257 198 265 204" stroke="#533A33" stroke-width="5" stroke-linecap="round"/>
  <path d="M224 248C236 234 264 228 290 237L317 245L300 272L274 264L254 283L224 248Z" fill="#2B97D8"/>
  <path d="M268 263L307 286" stroke="#1F2A3A" stroke-width="10" stroke-linecap="round"/>
  <path d="M232 259L194 284" stroke="#1F2A3A" stroke-width="10" stroke-linecap="round"/>
  <path d="M194 284L161 346" stroke="#1F2A3A" stroke-width="10" stroke-linecap="round"/>
  <path d="M278 274L244 334" stroke="#1F2A3A" stroke-width="10" stroke-linecap="round"/>
  <path d="M244 334L208 386" stroke="#1F2A3A" stroke-width="10" stroke-linecap="round"/>
  <path d="M161 346L187 354" stroke="#1E88D7" stroke-width="13" stroke-linecap="round"/>
  <path d="M208 386L238 394" stroke="#1E88D7" stroke-width="13" stroke-linecap="round"/>

  <text x="398" y="246" fill="#2A3551" font-family="system-ui, -apple-system, Segoe UI, sans-serif" font-size="68" font-weight="800" letter-spacing="-0.02em">Hang on tight !!</text>
  <text x="420" y="318" fill="#2A3551" font-family="system-ui, -apple-system, Segoe UI, sans-serif" font-size="56" font-weight="500">AI is orchestrating your</text>
  <text x="470" y="388" fill="#2A3551" font-family="system-ui, -apple-system, Segoe UI, sans-serif" font-size="56" font-weight="500">E-Learning course</text>
</svg>
